<svg xmlns="http://www.w3.org/2000/svg" viewBox="0 0 48 48">
  <path fill="#017688" d="M22.984 1.39c-1.488.286-3.007 1.215-3.91 2.391-2.691 3.504-1.176 8.426 3.067 9.914.843.293 2.402.364 3.324.153 2.144-.508 3.95-2.168 4.668-4.317.152-.433.191-.847.191-1.922-.012-1.308-.02-1.406-.344-2.199-.699-1.781-2.085-3.105-3.89-3.746-.555-.191-.969-.262-1.79-.281-.59-.02-1.175-.012-1.316.008m2.641 1.462c2.098.707 3.441 2.558 3.441 4.757 0 1.024-.109 1.528-.515 2.329-1.367 2.695-4.871 3.574-7.371 1.851-1.336-.91-2.145-2.48-2.145-4.129 0-2.187 1.336-4.07 3.422-4.781.91-.3 2.297-.324 3.168-.027m0 0"/>
  <path fill="#017688" d="M23.66 3.832c-.039.031-.07.234-.07.434 0 .336-.04.398-.324.52-.82.343-1.286 1.093-1.133 1.882.101.516.687 1.062 1.457 1.355 1.055.407 1.355.86.902 1.317-.191.191-.305.215-.84.172-.343-.032-.77-.133-.953-.223l-.336-.172-.14.356c-.305.718-.211.851.738 1.074.508.11.527.129.527.453 0 .414.192.578.63.54.312-.032.331-.052.362-.47.032-.383.07-.445.457-.636.81-.414 1.102-.84 1.102-1.63 0-.8-.324-1.175-1.508-1.773-.879-.433-.992-.527-1.023-.789-.028-.191.023-.336.144-.426.243-.183.973-.16 1.426.02.414.184.465.152.637-.383.152-.476.082-.558-.574-.73-.489-.121-.516-.16-.7-.84-.03-.121-.668-.172-.78-.051M15.563 5.129c-.68.23-2.504 1.305-3.586 2.105-9.102 6.754-10.907 19.664-4 28.606.84 1.094 1.003 1.234 1.406 1.234.437 0 .742-.304.742-.738 0-.266-.184-.559-.852-1.43C3.672 27.7 4.148 17.5 10.398 10.746c1.325-1.437 3.079-2.754 5.02-3.797.598-.312 1.137-.656 1.187-.758.364-.687-.265-1.336-1.043-1.062M31.559 5.25c-.223.254-.313.688-.184.922.063.11.559.433 1.094.726 5.633 2.989 9.195 8.09 10.015 14.309.192 1.477.141 3.98-.113 5.387-.555 3.11-1.789 5.914-3.652 8.312-.668.871-.852 1.164-.852 1.43 0 .445.305.738.75.738.293 0 .426-.09.871-.59 1.367-1.527 2.907-4.261 3.645-6.476.87-2.594 1.234-5.43 1.031-7.918-.586-7.172-4.484-13.145-10.762-16.496-1.043-.559-1.558-.649-1.843-.344m0 0"/>
  <path fill="#017688" d="M16.582 17.148c-.707.192-1.133.707-3.773 4.688l-2.582 3.887v1.902c0 2.625.21 3.395 1.222 4.406.559.559 1.297.93 2.156 1.106 1.145.23 2.614-.227 3.465-1.086l.426-.426.477.445c1.586 1.48 4.078 1.48 5.558.012l.446-.457.472.445c1.59 1.48 4.031 1.48 5.57 0l.438-.414.465.426c.96.871 2.277 1.277 3.422 1.063.851-.16 1.648-.567 2.218-1.145.993-.98 1.204-1.77 1.204-4.375v-1.922l-2.582-3.879c-1.598-2.398-2.743-4.008-2.996-4.222-.223-.192-.61-.403-.852-.465-.566-.14-14.207-.133-14.754.011m2.453 1.567c0 .144-2.047 6.258-2.117 6.34-.04.039-1.043.062-2.219.05l-2.144-.03 2.074-3.11c1.133-1.7 2.148-3.149 2.25-3.207.2-.121 2.156-.153 2.156-.043m4.149 3.172v3.238h-4.536l1.075-3.238 1.082-3.242h2.379Zm5.086 0 1.07 3.238h-4.535v-6.48h2.379Zm2.824-3.13c.11.052 1.133 1.497 2.27 3.208l2.074 3.11-2.149.03c-1.172.012-2.176-.011-2.215-.05-.07-.082-2.117-6.196-2.117-6.34 0-.11 1.914-.078 2.137.043m-14.41 9.587c-.028 1.59-.028 1.613-.332 2.11-1.004 1.616-3.403 1.507-4.254-.196-.235-.485-.254-.606-.254-2.012v-1.5h4.87Zm6.48 0c-.031 1.59-.031 1.613-.332 2.11-1.004 1.616-3.402 1.507-4.254-.196-.234-.485-.254-.606-.254-2.012v-1.5h4.871Zm6.48 0c-.03 1.59-.03 1.613-.331 2.11-1.004 1.616-3.403 1.507-4.254-.196-.235-.485-.254-.606-.254-2.012v-1.5h4.87Zm6.5-.16c-.007.91-.058 1.578-.14 1.812a2.43 2.43 0 0 1-2.258 1.61c-.96 0-1.781-.497-2.207-1.348-.234-.485-.254-.606-.254-2.012v-1.5h4.86ZM12.3 34.969c-.425.242-.445.351-.456 2.46 0 1.72.031 2.063.164 2.266.254.356 1.812 1.348 3.129 1.977 5.527 2.683 11.652 2.762 17.261.223 1.329-.61 2.926-1.563 3.422-2.047l.325-.325V37.54c0-2.144-.051-2.398-.516-2.59-.332-.144-.629-.062-.902.23-.18.192-.2.364-.2 1.946v1.742L34 39.22a16 16 0 0 1-2.996 1.539c-.64.254-1.195.469-1.246.469s-.094-.266-.094-.59c-.008-1.59-.566-2.934-1.71-4.078-2.278-2.282-5.61-2.27-7.919.007-1.133 1.125-1.7 2.48-1.71 4.07 0 .325-.032.59-.06.59-.406 0-3.097-1.246-4.163-1.925l-.637-.395v-1.672c0-1.78-.063-2.093-.477-2.277-.304-.14-.433-.133-.687.012m13.255 1.8c.445.172.77.395 1.265.903.903.91 1.145 1.508 1.203 2.957l.043 1.07-1.144.196c-1.57.25-4.274.25-5.832 0l-1.145-.184v-.879c0-1.379.254-2.117 1.024-2.98.515-.598 1.062-.95 1.812-1.204.75-.242 1.953-.191 2.774.122m0 0"/>
</svg>
